# xmcd
#
# Track frame offsets:
#	150
#	11438
#	34433
#	53455
#	75258
#	95978
#	118613
#	137852
#	150144
#	162749
#	175607
#	190719
#
# Disc length: 2722 seconds
#
# Revision: 0
# Processed by: cddbd v1.5.2PL0 Copyright (c) Steve Scherf et al.
# Submitted via: EasyCDDAExtractor 16.0.6.1
#
DISCID=8c0aa00c
DTITLE=Συλλογικός δίσκος - Τραγούδια Μικράς Ασίας κ Κωνσταντινουπόλεως
DYEAR=2003
DGENRE=Παραδοσιακή
TTITLE0=Άνευ ερμηνευτού - Συληβριανός [Μικράς Ασίας, συρτό, οργανικό]
TTITLE1=Χορωδία - Στ' Αλάτσατα είν' ένα βουνό [Μικράς Ασίας, ιστορικό, καθιστι
TTITLE1=κό]
TTITLE2=Άγνωστος - Το καραβάκι πού 'ρχεται [Μικράς Ασίας, συρτό]
TTITLE3=Άγνωστος - Σκοπός του γάμου [Μικράς Ασίας, καθιστικό]
TTITLE4=Χορωδία - Ξημέρωσε η Ανατολή [Μικράς Ασίας, συρτό]
TTITLE5=Χορωδία - Δεν είν' αυγή να σηκωθώ [Μικράς Ασίας, καρσιλαμάς κ γύρισμα 
TTITLE5=κασάπικο οργανικό]
TTITLE6=Χορωδία - Μα τι αέρα δροσερό [Μικράς Ασίας, αργός καρσιλαμάς]
TTITLE7=Άνευ ερμηνευτού - Καροτσέρης [Μικράς Ασίας, κασάπικο οργανικό]
TTITLE8=Άγνωστος - Μ' έχεις μπερντεμένο μ' έχεις [Κωνσταντινουπόλεως, καθιστικ
TTITLE8=ό]
TTITLE9=Χορωδία - Εμένα με το είπανε [Κωνσταντινουπόλεως, κασάπικο]
TTITLE10=Χορωδία - Βαρύτερ' απ' τα σίδερα [Κωνσταντινουπόλεως, καθιστικό σε ρυ
TTITLE10=θμό καλαματιανού]
TTITLE11=Άνευ ερμηνευτού - Ταταυλιανός [Κωνσταντινουπόλεως, συρτό-μπάλλος, οργ
TTITLE11=ανικό]
EXTD=
EXTT0=
EXTT1=
EXTT2=
EXTT3=
EXTT4=
EXTT5=
EXTT6=
EXTT7=
EXTT8=
EXTT9=
EXTT10=
EXTT11=
PLAYORDER=
